<mxfile host="app.diagrams.net" modified="2024-01-22T08:31:03.273Z" agent="Mozilla/5.0 (Macintosh; Intel Mac OS X 10_15_7) AppleWebKit/537.36 (KHTML, like Gecko) Chrome/120.0.0.0 Safari/537.36" version="22.1.21" etag="5bSHurzyuusfglAuf5yJ" type="github">
  <diagram name="第 1 页" id="H4iG7l-jS_yBEy7ajylR">
    <mxGraphModel>
      <root>
        <mxCell id="0" />
        <mxCell id="1" parent="0" />
      </root>
    </mxGraphModel>
  </diagram>
</mxfile>
